<svg xmlns="http://www.w3.org/2000/svg" width="760" height="245" viewBox="0 0 760 245"><defs><linearGradient id="bg" x1="0" y1="0" x2="1" y2="1"><stop stop-color="#160b0d"/><stop offset="1" stop-color="#281012"/></linearGradient><linearGradient id="red" x1="0" y1="0" x2="0" y2="1"><stop stop-color="#7e1f24"/><stop offset="1" stop-color="#351014"/></linearGradient><filter id="shadow"><feDropShadow dx="0" dy="5" stdDeviation="5" flood-color="#000" flood-opacity=".75"/></filter></defs><rect width="760" height="245" rx="26" fill="url(#bg)" stroke="#7f5321" stroke-width="4"/><!-- small raven, kept clear of text --><g transform="translate(93 67) scale(.72)" fill="#11151c" stroke="#684060" stroke-width="3"><ellipse cx="0" cy="10" rx="34" ry="26"/><circle cx="23" cy="-10" r="18"/><polygon points="39,-12 72,-3 39,1"/><path d="M-26 10 Q-62 -7 -48 35 Q-21 28 -4 20"/><circle cx="28" cy="-14" r="3" fill="#e24343" stroke="none"/></g><g filter="url(#shadow)"><path d="M122 69 Q380 35 638 69 L621 190 Q380 214 139 190 Z" fill="url(#red)" stroke="#8e6229" stroke-width="7"/><path d="M122 87 L55 71 L83 112 L49 147 L139 143" fill="#55171c" stroke="#70491f" stroke-width="5"/><path d="M638 87 L705 71 L677 112 L711 147 L621 143" fill="#55171c" stroke="#70491f" stroke-width="5"/><g transform="translate(380 52) rotate(-5)"><circle cx="0" cy="0" r="32" fill="#c8c1ac" stroke="#3a2923" stroke-width="4"/><circle cx="-11" cy="-3" r="8" fill="#2b1114"/><circle cx="11" cy="-3" r="8" fill="#2b1114"/><path d="M0 5 l-6 10 h12z" fill="#2b1114"/><path d="M-17 19 v17 M-6 22 v16 M6 22 v16 M17 19 v17" stroke="#3a2923" stroke-width="4"/></g><text x="380" y="151" text-anchor="middle" font-family="Georgia,serif" font-size="72" font-weight="900" fill="#d6d1c5" stroke="#281012" stroke-width="4" paint-order="stroke">YOU LOSE!</text></g><!-- tiny defeated weapons, no goblin --><g transform="translate(380 205) scale(.40)" opacity=".9"><g transform="rotate(-58)"><rect x="-6" y="-42" width="12" height="61" rx="4" fill="#9fa3a0" stroke="#241a16" stroke-width="4"/><polygon points="0,-61 -12,-40 12,-40" fill="#c8c9c3" stroke="#241a16" stroke-width="4"/><rect x="-22" y="14" width="44" height="9" rx="4" fill="#8f6125"/><rect x="-5" y="20" width="10" height="28" rx="4" fill="#55331f"/></g><g transform="translate(15 5) rotate(62)"><rect x="-5" y="-25" width="10" height="48" rx="3" fill="#706966" stroke="#241a16" stroke-width="4"/><rect x="-19" y="18" width="38" height="8" rx="3" fill="#70491f"/></g></g><path d="M324 207 l13 -7 l8 13 l-17 5z M425 208 l12 -10 l9 14 l-15 6z" fill="#5c4a36" stroke="#8e6229" stroke-width="2"/></svg>